<svg height="512" viewBox="0 0 512 512" width="512" xmlns="http://www.w3.org/2000/svg"><g id="filled_outline" data-name="filled outline"><path d="m472 488-432 .92v-336l216-128.92 216 128z" fill="#0292c9"/><path d="m400 489 5.766-20.219a306.312 306.312 0 0 0 10.82-123.8 306.31 306.31 0 0 0 -49.346-134.121 228.588 228.588 0 0 0 -57.333-59.212 125.419 125.419 0 0 0 -48.307-20.928 52.241 52.241 0 0 0 -26.76 1.666l-19 6.334a36 36 0 0 0 -22.04 20.78l-9.8 24.5-47.789 23.894a16 16 0 0 0 -6.157 23.187l21.946 32.919 47.247-4.3v229.22z" fill="#fbb540"/><path d="m344 212.22a32 32 0 0 1 -64 0v-16.72a70.437 70.437 0 0 0 -10.03-36.22l-8.15-13.58a91.893 91.893 0 0 0 -12.13-15.96c.56-.02 1.11-.03 1.67-.03a52.054 52.054 0 0 1 10.24 1.01 125.371 125.371 0 0 1 48.31 20.93q5.07 3.63 9.94 7.52a70.317 70.317 0 0 1 24.15 53.05z" fill="#fbb540"/><path d="m143.7 234.86-7.7 5.14-5.95-8.92a16.01 16.01 0 0 1 6.16-23.19l15.74-7.87.05-.02 1.81 5.42a25.649 25.649 0 0 1 -10.11 29.44z" fill="#fbb540"/><path d="m369.041 317.359-49.041 49.041-49.041-49.041a23.758 23.758 0 0 1 -6.959-16.8 23.759 23.759 0 0 1 23.759-23.759 23.758 23.758 0 0 1 16.8 6.959l15.441 15.441 15.441-15.441a23.758 23.758 0 0 1 16.8-6.959 23.759 23.759 0 0 1 23.759 23.759 23.758 23.758 0 0 1 -6.959 16.8z" fill="#e82f3e"/><g fill="#d18d28"><circle cx="221" cy="189" r="11"/><path d="m199.247 259.705 35.584-3.235a9.316 9.316 0 0 0 7.49-5.113 7.515 7.515 0 0 1 12.9-.913 7.514 7.514 0 0 1 .235 8.186 22.68 22.68 0 0 1 -16.776 10.725l-38.68 4.445z"/><path d="m344 212.22a32 32 0 0 1 -64 0v-16.72a70.437 70.437 0 0 0 -10.03-36.22l-8.15-13.58a91.893 91.893 0 0 0 -12.13-15.96c.56-.02 1.11-.03 1.67-.03a52.054 52.054 0 0 1 10.24 1.01 125.371 125.371 0 0 1 48.31 20.93l4.61 3.3q2.775 1.98 5.33 4.22a70.317 70.317 0 0 1 24.15 53.05z"/><path d="m143.7 234.86-7.7 5.14-5.95-8.92a16.01 16.01 0 0 1 6.16-23.19l15.74-7.87.05-.02 1.81 5.42a25.649 25.649 0 0 1 -10.11 29.44z"/></g><path d="m272 416 2.155.616a74.241 74.241 0 0 1 53.845 71.384v1h-200l-4.839-16.726a200 200 0 0 1 22.424-166.193l6.415-10.081 1.851-3.7a51.192 51.192 0 0 1 45.786-28.3h.363v32l27.877 13.939a46 46 0 0 1 24.535 32.122l3.588 17.939.811.811a24 24 0 0 1 1.77 31.963l-2.581 3.226z" fill="#fbfdff"/><path d="m218.516 424a52.355 52.355 0 0 1 -37.266-15.436l-2.907-2.907a8 8 0 0 1 11.314-11.314l2.907 2.907a36.7 36.7 0 0 0 54.61-3.024l2.579-3.226a8 8 0 1 1 12.494 10l-2.58 3.224a52.44 52.44 0 0 1 -41.151 19.776z" fill="#cbcbcb"/><circle cx="216" cy="352" fill="#cbcbcb" r="11"/><path d="m352.241 268.8a31.548 31.548 0 0 0 -22.456 9.3l-9.785 9.787-9.784-9.784a31.759 31.759 0 1 0 -44.916 44.913l49.041 49.042a8 8 0 0 0 11.314 0l49.045-49.042a31.759 31.759 0 0 0 -22.459-54.216zm11.144 42.9-43.385 43.387-43.385-43.387a15.759 15.759 0 0 1 22.285-22.284l15.441 15.441a8 8 0 0 0 11.314 0l15.445-15.442a15.759 15.759 0 0 1 22.285 22.285z"/><path d="m476.079 145.117-216-128a8 8 0 0 0 -8.179.014l-216 128.921a8 8 0 0 0 -3.9 6.869v336a8 8 0 0 0 8 8h.017l432-.921a8 8 0 0 0 7.983-8v-336a8.005 8.005 0 0 0 -3.921-6.883zm-284.079 127.551v23.332a8 8 0 0 0 4.422 7.155l27.878 13.939a37.752 37.752 0 0 1 20.268 26.536l3.588 17.939a8 8 0 0 0 2.188 4.088l.811.811a15.982 15.982 0 0 1 1.18 21.308l-2.579 3.224-2.579 3.224a36.7 36.7 0 0 1 -54.61 3.024l-2.907-2.907a8 8 0 0 0 -11.314 11.314l2.907 2.907a52.7 52.7 0 0 0 74.546-.014l9.954 12.452a8 8 0 0 0 4.051 2.695l2.153.616a66.568 66.568 0 0 1 47.553 55.689h-185.6l-3.1-10.079a191.719 191.719 0 0 1 21.526-159.545l6.416-10.081a8.042 8.042 0 0 0 .406-.717l1.851-3.7a42.919 42.919 0 0 1 30.991-23.21zm84.652 136.342-10.459-13.074a31.963 31.963 0 0 0 -2.814-39.833l-3.122-15.612a53.654 53.654 0 0 0 -28.8-37.708l-23.457-11.727v-24.114l32.724-2.975a8 8 0 0 0 6.431-4.389l8-16a8 8 0 0 0 -14.31-7.156l-6.008 12.015-78.821 7.163-8.922-13.384 1.047-.7a33.72 33.72 0 0 0 13.619-37.457l25.818-12.909a8 8 0 0 0 3.85-4.184l9.8-24.5a27.946 27.946 0 0 1 17.142-16.165l19-6.334a44.19 44.19 0 0 1 8.995-1.969 84.075 84.075 0 0 1 8.594 11.81l8.148 13.581a62.4 62.4 0 0 1 8.893 32.111v16.727a40 40 0 1 0 80 0 77.971 77.971 0 0 0 -.61-9.7q4.806 6.207 9.194 12.775a299.689 299.689 0 0 1 48.056 130.61 296.584 296.584 0 0 1 -10.54 120.57l-4.1 13.684-58.378.125a82.636 82.636 0 0 0 -58.97-71.281zm-139.942-182.367a8 8 0 0 1 3.079-11.593l7.2-3.6a17.681 17.681 0 0 1 -7.719 16.756l-1.046.7zm178.218-61.155a62.526 62.526 0 0 1 21.072 46.735 23.868 23.868 0 0 1 -13.266 21.466 24.119 24.119 0 0 1 -21.467 0 23.867 23.867 0 0 1 -13.267-21.466v-16.723a78.407 78.407 0 0 0 -11.171-40.33l-8.148-13.581c-.232-.386-.486-.759-.723-1.142a116.571 116.571 0 0 1 37.3 17.714q4.95 3.533 9.67 7.327zm149.072 314.529-53.287.113 2.715-9.05a312.5 312.5 0 0 0 11.1-127.037 315.762 315.762 0 0 0 -50.628-137.62 235.614 235.614 0 0 0 -48.66-53.177c-1.932-1.692-3.951-3.3-6.062-4.809a8.058 8.058 0 0 0 -.761-.479c-1.276-.95-2.559-1.894-3.856-2.82a132.55 132.55 0 0 0 -51.387-22.262 60.306 60.306 0 0 0 -30.858 1.921l-19 6.333a43.918 43.918 0 0 0 -26.939 25.4l-8.677 21.675-45.069 22.534a24 24 0 0 0 -9.236 34.779l5.945 8.916 16 24a8 8 0 0 0 7.38 3.529l7.123-.648a59.447 59.447 0 0 0 -13.151 17.4l-1.667 3.334-6.194 9.732a207.691 207.691 0 0 0 -23.32 172.84l1.886 6.13-69.397.149v-323.437l208.015-124.155 207.985 123.251z"/><circle cx="216" cy="352" r="11"/><circle cx="221" cy="189" r="11"/></g></svg>